# xmcd
#
# Track frame offsets: 
#        150
#        22375
#        43800
#        64450
#        82512
#        104075
#        120845
#        137270
#        157195
#        182157
#        206182
#        225227
#        242127
#        260227
#        281289
#
# Disc length: 4027 seconds
#
# Revision: 0
# Processed by: cddbd v1.5.2PL0 Copyright (c) Steve Scherf et al.
# Submitted via: ExactAudioCopy v1.0b3
#
DISCID=d60fb90f
DTITLE=杨林 - stereo玻璃心精选集
DYEAR=2007
DGENRE=stereo
TTITLE0=玻璃心
TTITLE1=情人
TTITLE2=玫瑰情话
TTITLE3=yellow taxi
TTITLE4=不想恋爱了
TTITLE5=偶然
TTITLE6=别在窗前等我
TTITLE7=她比我更好
TTITLE8=为情所困
TTITLE9=爱与愁
TTITLE10=溺爱
TTITLE11=热恋
TTITLE12=疼你的心就像我自己
TTITLE13=纽扣
TTITLE14=一个人的生活
EXTD=
EXTT0=
EXTT1=
EXTT2=
EXTT3=
EXTT4=
EXTT5=
EXTT6=
EXTT7=
EXTT8=
EXTT9=
EXTT10=
EXTT11=
EXTT12=
EXTT13=
EXTT14=
PLAYORDER=
